<svg width="131" height="35" viewBox="0 0 131 35" fill="none" xmlns="http://www.w3.org/2000/svg">
<path d="M8.20312 8.09375L7.21875 12.7969L13.5625 22.3125H8.20312L11.375 27.125H19.0312L20.0156 22.5312L10.5 8.09375H8.20312Z" fill="#202020"/>
<path d="M15.0937 12.7969L15.9687 8.09375H23.625L26.9062 12.7969L21.6562 12.9062L27.8906 22.3125L27.125 27.125H24.7187L15.0937 12.7969Z" fill="#202020"/>
<path d="M8.20312 8.09375L7.21875 12.7969L13.5625 22.3125H8.20312L11.375 27.125H19.0312L20.0156 22.5312L10.5 8.09375H8.20312Z" stroke="#202020" stroke-width="0.21875"/>
<path d="M15.0937 12.7969L15.9687 8.09375H23.625L26.9062 12.7969L21.6562 12.9062L27.8906 22.3125L27.125 27.125H24.7187L15.0937 12.7969Z" stroke="#202020" stroke-width="0.21875"/>
<path d="M37.988 19.27C38.294 20.872 39.428 21.952 41.318 21.952C42.83 21.952 43.838 21.376 43.838 20.206C43.838 19 42.812 18.298 40.418 17.704C38.15 17.146 36.278 16.084 36.278 14.014C36.278 11.818 38.078 10.432 40.652 10.432C43.424 10.432 45.278 12.16 45.566 14.572L43.604 14.68C43.388 13.168 42.254 12.178 40.616 12.178C39.248 12.178 38.24 12.898 38.258 14.032C38.276 15.454 40.004 15.85 41.498 16.264C43.946 16.894 45.818 18.082 45.818 20.062C45.818 22.456 43.64 23.716 41.21 23.716C38.312 23.716 36.224 22.006 36.026 19.378L37.988 19.27ZM46.9624 13.96H48.8704L51.5884 21.52L54.2164 13.96H56.1064L52.2904 24.616C51.8944 25.714 51.1744 26.2 50.0044 26.2H48.7084V24.67H49.7524C50.2384 24.67 50.5264 24.49 50.6884 24.04L51.0124 23.23H50.4184L46.9624 13.96ZM57.938 13.96H59.63L59.684 15.58C60.188 14.302 61.286 13.744 62.6 13.744C64.742 13.744 65.822 15.292 65.822 17.362V23.5H63.95V17.92C63.95 16.246 63.446 15.328 62.114 15.328C60.692 15.328 59.81 16.246 59.81 17.92V23.5H57.938V13.96ZM74.4639 17.29C74.2839 16.084 73.3299 15.382 72.2499 15.382C70.6119 15.382 69.6759 16.642 69.6759 18.73C69.6759 20.818 70.6119 22.078 72.2499 22.078C73.3839 22.078 74.3379 21.34 74.5359 20.008L76.4979 20.116C76.1919 22.348 74.4099 23.716 72.2499 23.716C69.5139 23.716 67.7319 21.772 67.7319 18.73C67.7319 15.688 69.5139 13.744 72.2499 13.744C74.3379 13.744 76.1559 15.04 76.4079 17.182L74.4639 17.29ZM80.1228 19.27C80.4288 20.872 81.5628 21.952 83.4528 21.952C84.9648 21.952 85.9728 21.376 85.9728 20.206C85.9728 19 84.9468 18.298 82.5528 17.704C80.2848 17.146 78.4128 16.084 78.4128 14.014C78.4128 11.818 80.2128 10.432 82.7868 10.432C85.5588 10.432 87.4128 12.16 87.7008 14.572L85.7388 14.68C85.5228 13.168 84.3888 12.178 82.7508 12.178C81.3828 12.178 80.3748 12.898 80.3928 14.032C80.4108 15.454 82.1388 15.85 83.6328 16.264C86.0808 16.894 87.9528 18.082 87.9528 20.062C87.9528 22.456 85.7748 23.716 83.3448 23.716C80.4468 23.716 78.3588 22.006 78.1608 19.378L80.1228 19.27ZM90.0709 26.2V13.96H91.8169L91.8709 15.346C92.3929 14.32 93.3829 13.744 94.7689 13.744C97.5769 13.744 98.8729 16.066 98.8729 18.73C98.8729 21.394 97.5769 23.716 94.7689 23.716C93.4549 23.716 92.4829 23.194 91.9429 22.204V26.2H90.0709ZM91.7629 18.73C91.7629 20.44 92.5369 22.078 94.3369 22.078C96.1549 22.078 96.8929 20.458 96.8929 18.73C96.8929 17.02 96.1549 15.382 94.3369 15.382C92.5189 15.382 91.7629 17.02 91.7629 18.73ZM100.765 16.804C101.143 14.896 102.655 13.744 104.815 13.744C107.407 13.744 108.811 15.184 108.811 17.776V21.376C108.811 21.826 109.009 21.988 109.387 21.988H109.783V23.5H109.153C108.289 23.518 107.155 23.338 107.083 22.042C106.669 22.942 105.607 23.716 104.041 23.716C102.133 23.716 100.603 22.708 100.603 20.998C100.603 19.072 102.025 18.532 104.203 18.118L106.939 17.578C106.921 16.048 106.219 15.31 104.815 15.31C103.699 15.31 102.961 15.868 102.691 16.93L100.765 16.804ZM102.547 20.962C102.547 21.664 103.141 22.24 104.401 22.24C105.859 22.24 106.975 21.214 106.975 19.126V19.036L104.923 19.396C103.591 19.63 102.547 19.738 102.547 20.962ZM117.759 17.29C117.579 16.084 116.625 15.382 115.545 15.382C113.907 15.382 112.971 16.642 112.971 18.73C112.971 20.818 113.907 22.078 115.545 22.078C116.679 22.078 117.633 21.34 117.831 20.008L119.793 20.116C119.487 22.348 117.705 23.716 115.545 23.716C112.809 23.716 111.027 21.772 111.027 18.73C111.027 15.688 112.809 13.744 115.545 13.744C117.633 13.744 119.451 15.04 119.703 17.182L117.759 17.29ZM121.24 18.73C121.24 15.688 123.022 13.744 125.758 13.744C127.99 13.744 129.934 15.22 130.042 18.622L130.06 19.27H123.202C123.346 21.052 124.246 22.096 125.758 22.096C126.712 22.096 127.558 21.556 127.954 20.638L129.916 20.782C129.358 22.582 127.684 23.716 125.758 23.716C123.022 23.716 121.24 21.772 121.24 18.73ZM123.238 17.83H128.08C127.828 15.994 126.838 15.364 125.758 15.364C124.354 15.364 123.472 16.282 123.238 17.83Z" fill="#202020"/>
</svg>
